<svg xmlns="http://www.w3.org/2000/svg" xmlns:xlink="http://www.w3.org/1999/xlink" viewBox="0 0 136 235"><defs><style>.cls-1{isolation:isolate;}.cls-2{fill:#fecbb6;}.cls-3{opacity:0.61;mix-blend-mode:soft-light;}.cls-4{fill:url(#linear-gradient);}.cls-5{fill-opacity:0.2;fill:url(#linear-gradient-2);}.cls-6{fill:#361f0e;}.cls-7{fill:#180e06;}.cls-8{fill:#c2ac9c;}</style><linearGradient id="linear-gradient" x1="-326.31" y1="414.81" x2="-326.31" y2="415.8" gradientTransform="matrix(79.04, 0, 0, -109.81, 25859.55, 45844.53)" gradientUnits="userSpaceOnUse"><stop offset="0" stop-color="#fff"/><stop offset="1"/></linearGradient><linearGradient id="linear-gradient-2" x1="-326.81" y1="416.31" x2="-328.17" y2="416.57" gradientTransform="matrix(110.64, 0, 0, -172.23, 36304.87, 71821.04)" gradientUnits="userSpaceOnUse"><stop offset="0" stop-color="#fff" stop-opacity="0.5"/><stop offset="1" stop-opacity="0.5"/></linearGradient></defs><title>about-avatar-v2</title><g class="cls-1"><g id="Layer_1" data-name="Layer 1"><g id="_01.-Web-UI" data-name="01.-Web-UI"><g id="about-illustration"><g id="face-beard-copy"><g id="Combined-Shape"><path id="path-2" class="cls-2" d="M107.53,202.65l-2.65-1.17v-4.62l-.1.4h0q.1-1.34.1-2.71V125.19H31.12v69.36q0,1.37.1,2.71l-.1-.4v4.62l-2.63,1.26a40.33,40.33,0,0,0,79-.09Z"/><g class="cls-3"><path id="path-2-2" data-name="path-2" class="cls-4" d="M107.53,202.65l-2.65-1.17v-4.62l-.1.4h0q.1-1.34.1-2.71V125.19H31.12v69.36q0,1.37.1,2.71l-.1-.4v4.62l-2.63,1.26a40.33,40.33,0,0,0,79-.09Z"/></g></g><g id="ear"><path id="Oval-7" class="cls-2" d="M9.22,126c4.61,0,15-8.17,15-18.25S17.29,92.47,9.22,89s-10.37,4.62-8.07,16.18S4.61,126,9.22,126Z"/></g><g id="ear-copy-3"><path id="Oval-7-2" data-name="Oval-7" class="cls-2" d="M126.78,126c-4.61,0-15-8.17-15-18.25s6.92-15.27,15-18.74,10.37,4.62,8.07,16.18S131.39,126,126.78,126Z"/></g><g id="Combined-Shape-2" data-name="Combined-Shape"><path id="path-6" class="cls-2" d="M67.22,10.4H68c-30.58,0-55.34,25.2-55.34,56.29v60.74c0,19.87,27.66,55.2,55.32,55.2s55.32-30.91,55.32-55.2V66.69C123.32,35.6,98.56,10.4,68,10.4h-.76Z"/><path id="path-6-2" data-name="path-6" class="cls-5" d="M67.22,10.4H68c-30.58,0-55.34,25.2-55.34,56.29v60.74c0,19.87,27.66,55.2,55.32,55.2s55.32-30.91,55.32-55.2V66.69C123.32,35.6,98.56,10.4,68,10.4h-.76Z"/></g><g id="hair"><path id="Combined-Shape-3" data-name="Combined-Shape" class="cls-6" d="M117,22.33c5.59,2.07,11.95,6.76,13.28,17,0,19.07-3.23,50.9-3.23,50.9-.54,3.15-2.89,5.74-5.22,5.74V73.52l-3.35-2.62c-5.15-4-9.33-12.63-9.33-19.18V46.64c-5.78,7.45-14,13-23.22,14.75,0,0-9.82,2.18-20.2,3.34-13.64,0-20.16-2.56-20.16-2.56a42.63,42.63,0,0,1-18.85-9.63c-.23,6.33-4.24,14.37-9.14,18.21L14,73.52V95.94c-2.33,0-4.68-2.58-5.22-5.74,0,0-3.23-33.56-5.34-52.06,1-8,3.65-12.65,6.52-15.26L7.68,4.48a53.25,53.25,0,0,0,26.93,6.37l-3.9-8.54S41.22,6.91,49.11,8q1.46-.54,2.94-1.2C75.3-3.61,85.48,1.49,85.48,1.49c11.87.68,22.18,8.21,27.73,18.44a9.38,9.38,0,0,0,1.18-8.37C116.5,13.1,118.15,18.25,117,22.33Z"/></g><g id="Glasses"><path id="Combined-Shape-4" data-name="Combined-Shape" class="cls-7" d="M68,90.37l8.07,0s9-4.57,18.66-5.15c11.54-.7,15.63.52,23.7,2.58S128,91.38,128,91.38l-.5,5.15-3,2.06s-2,1.35-2.52,6c-1,18-15.63,23.9-23.7,23.39s-15.13-3.81-18.66-10c-4.54-7.73-3-9.79-5-19.9-.38-2.09-4.19-2.36-6.05-2.37v0l-.5,0-.5,0v0c-1.86,0-5.67.28-6.05,2.37-2,10.11-.5,12.17-5,19.9-3.53,6.18-10.59,9.47-18.66,10s-22.69-5.35-23.7-23.39c-.5-4.64-2.52-6-2.52-6l-3-2.06L8,91.38s1.51-1.55,9.58-3.61,12.16-3.28,23.7-2.58c9.64.59,18.66,5.15,18.66,5.15ZM37.34,124.74c11.07,0,20.05-8.39,20.05-18.74,0-4.48,0-10.94-5.87-14.44s-22-4.5-27.88-.5c-4.83,3.29-6.36,8.27-6.36,14.94C17.29,116.35,26.27,124.74,37.34,124.74Zm61.15,0c10.87,0,19.69-8.24,19.69-18.41,0-6.55-1.5-11.44-6.24-14.67-5.76-3.93-21.61-2.94-27.37.49s-5.76,9.78-5.76,14.18C78.81,116.5,87.62,124.74,98.5,124.74Z"/><ellipse id="Oval-11" class="cls-8" cx="12" cy="95" rx="2" ry="1"/><ellipse id="Oval-11-Copy" class="cls-8" cx="123" cy="95" rx="2" ry="1"/></g></g></g></g></g></g></svg>