<?xml version="1.0" encoding="UTF-8"?>
<svg width="63px" height="80px" viewBox="0 0 63 80" version="1.1" xmlns="http://www.w3.org/2000/svg" xmlns:xlink="http://www.w3.org/1999/xlink">
    <!-- Generator: Sketch 42 (36781) - http://www.bohemiancoding.com/sketch -->
    <title>Logo Big</title>
    <desc>Created with Sketch.</desc>
    <defs></defs>
    <g id="Web" stroke="none" stroke-width="1" fill="none" fill-rule="evenodd" stroke-linejoin="round">
        <g id="Artboard" transform="translate(-568.000000, -229.000000)" stroke-width="4" stroke="#4CA8F9">
            <g id="Logo" transform="translate(132.000000, 110.000000)">
                <g id="Logo-Big" transform="translate(438.000000, 121.000000)">
                    <g id="Logo-v2">
                        <path d="M20.9777778,31.4482759 L20.9777778,48.4827586 M20.9777778,49.7931034 C20.9777778,49.7931034 59,38.6465376 59,24.8965517 C59,11.1465659 20.9777778,0 20.9777778,0 L20.9777778,24.8965517" id="Oval" stroke-linecap="round"></path>
                        <path d="M20.9777778,49.7931034 L20.9777778,76 C20.9777778,76 59,64.8534341 59,51.1034483 C59,47.5929777 56.5216441,44.2522027 52.8304167,41.2232929 M47.9281525,37.7649612 C36.7035061,30.8170392 20.9777778,26.2068966 20.9777778,26.2068966" id="Oval-Copy-4" stroke-linecap="round"></path>
                        <path d="M20.9777778,26.2068966 C11.8,23.5862069 0,27.7009383 0,38 C0,48.2990617 10.4888889,52.4137931 20.9777778,49.7931034" id="Oval-2"></path>
                    </g>
                </g>
            </g>
        </g>
    </g>
</svg>