<?xml version="1.0" encoding="UTF-8"?>
<svg width="24px" height="24px" viewBox="0 0 24 24" version="1.1" xmlns="http://www.w3.org/2000/svg" xmlns:xlink="http://www.w3.org/1999/xlink">
    <!-- Generator: Sketch 42 (36781) - http://www.bohemiancoding.com/sketch -->
    <title>Dribbble</title>
    <desc>Created with Sketch.</desc>
    <defs></defs>
    <g id="Icons" stroke="none" stroke-width="1" fill="none" fill-rule="evenodd">
        <g id="Dribbble" fill="#DDDDDD">
            <path d="M17.7262175,20.4997427 C17.6218463,19.880597 17.0754325,16.873649 15.7316535,13.1796191 C19.0400665,12.6507977 21.9064369,13.5579002 22.1190164,13.6273803 C21.661625,16.482244 20.0277556,18.9457025 17.7262175,20.4997427 M12.0003837,22.2483273 C9.52003326,22.2483273 7.24535542,21.365929 5.47258018,19.8998971 C5.60764877,20.0087494 5.7020433,20.0782295 5.7020433,20.0782295 C5.7020433,20.0782295 7.66667733,15.7943901 13.7439964,13.6775605 C13.7670195,13.6690685 13.7892751,13.6621204 13.8115307,13.6551724 C15.2535414,17.4024704 15.8498385,20.5406588 16.0010232,21.4369532 C14.7715921,21.9588266 13.4193713,22.2483273 12.0003837,22.2483273 M1.75282192,11.999228 C1.75282192,11.8896037 1.7566591,11.7830674 1.76049627,11.6765311 C1.94237841,11.6796191 7.00514821,11.7946475 12.281265,10.2159032 C12.5751927,10.7902728 12.8560739,11.3746783 13.1123973,11.9575399 C12.9773287,11.995368 12.843795,12.0362841 12.7094938,12.0802882 C7.17935599,13.867473 4.37438046,18.8430262 4.37438046,18.8430262 C4.37438046,18.8430262 4.3774502,18.8461143 4.3774502,18.8476583 C2.74588303,17.0326814 1.75282192,14.631755 1.75282192,11.999228 M7.62753813,2.73211529 C7.76414159,2.91430777 9.65893902,5.48353062 11.4332491,8.63638703 C6.51322227,9.94415852 2.24167812,9.89243438 1.97154095,9.88780237 C2.63690724,6.7141019 4.76960957,4.08157488 7.62753813,2.73211529 M9.54612605,2.04966547 C9.54535862,2.05120947 9.54382375,2.05198147 9.54382375,2.05198147 C9.54382375,2.05198147 9.53154478,2.05429748 9.51312634,2.05892949 C9.52387043,2.05506948 9.53461452,2.05352548 9.54612605,2.04966547 M18.7683945,4.30931549 C18.7430691,4.3486876 17.2834074,6.57128152 13.4155342,8.01955739 C11.6642471,4.8018528 9.73951971,2.24498199 9.58526524,2.04117344 C10.3596073,1.85434894 11.1677166,1.75244467 12.0003837,1.75244467 C14.595082,1.75244467 16.9633869,2.71976325 18.7683945,4.30931549 M22.2448758,11.8973237 C22.0967608,11.8648996 18.6287213,11.1191457 15.1077287,11.5615028 C15.0348224,11.3870304 14.961916,11.2102419 14.8867074,11.0334534 C14.672593,10.5316521 14.4431299,10.0352548 14.205225,9.54657746 C18.252678,7.89449305 19.8942219,5.51904272 19.9141752,5.49047864 C21.3515812,7.2367473 22.2203178,9.46628924 22.2448758,11.8973237 M23.7551882,9.58440556 C23.5986314,8.8139475 23.3622614,8.05429748 23.0552873,7.32861554 C22.7559876,6.61760165 22.3822467,5.93129182 21.9494132,5.29053011 C21.520417,4.65594442 21.0277236,4.05841482 20.4851469,3.51569738 C19.9425703,2.97220793 19.3447383,2.47967061 18.709302,2.05120947 C18.0684936,1.61657231 17.3824065,1.24523932 16.6717616,0.943386516 C15.9473028,0.638445703 15.1867745,0.400669068 14.4170371,0.245496655 C13.6258114,0.0826042203 12.8130976,0 12.0003837,0 C11.1869024,0 10.3741886,0.0826042203 9.58296294,0.245496655 C8.81322547,0.400669068 8.05346465,0.638445703 7.32823842,0.943386516 C6.61682602,1.24523932 5.93150641,1.61657231 5.28993061,2.05120947 C4.65449429,2.47967061 4.0566623,2.97220793 3.51408563,3.51569738 C2.97150897,4.05841482 2.48035046,4.65594442 2.05058677,5.29053011 C1.61775333,5.93129182 1.24401241,6.61760165 0.943945256,7.32861554 C0.636971189,8.05429748 0.402136028,8.8139475 0.244044383,9.58440556 C0.0821155629,10.3726197 0,11.1863098 0,11.999228 C0,12.8136902 0.0821155629,13.6273803 0.244044383,14.4171384 C0.402136028,15.1875965 0.636971189,15.9472465 0.943945256,16.6713845 C1.24401241,17.3823984 1.61775333,18.0702522 2.05058677,18.7110139 C2.48035046,19.3463716 2.97150897,19.9415852 3.51408563,20.4850746 C4.0566623,21.0285641 4.65449429,21.5195574 5.28993061,21.9495625 C5.93150641,22.3818837 6.61682602,22.7555327 7.32823842,23.0558415 C8.05346465,23.3630983 8.81322547,23.5970149 9.58296294,23.7552753 C10.3741886,23.9181678 11.1869024,24 12.0003837,24 C12.8130976,24 13.6258114,23.9181678 14.4170371,23.7552753 C15.1867745,23.5970149 15.9473028,23.3630983 16.6717616,23.0558415 C17.3824065,22.7555327 18.0684936,22.3818837 18.709302,21.9495625 C19.3447383,21.5195574 19.9425703,21.0285641 20.4851469,20.4850746 C21.0277236,19.9415852 21.520417,19.3463716 21.9494132,18.7110139 C22.3822467,18.0702522 22.7559876,17.3823984 23.0552873,16.6713845 C23.3622614,15.9472465 23.5986314,15.1875965 23.7551882,14.4171384 C23.9178844,13.6273803 24,12.8136902 24,11.999228 C24,11.1863098 23.9178844,10.3726197 23.7551882,9.58440556" id="Fill-1"></path>
        </g>
    </g>
</svg>