<?xml version="1.0" encoding="UTF-8"?>
<svg width="24px" height="24px" viewBox="0 0 24 24" version="1.1" xmlns="http://www.w3.org/2000/svg" xmlns:xlink="http://www.w3.org/1999/xlink">
    <!-- Generator: Sketch 42 (36781) - http://www.bohemiancoding.com/sketch -->
    <title>Instagram</title>
    <desc>Created with Sketch.</desc>
    <defs></defs>
    <g id="Icons" stroke="none" stroke-width="1" fill="none" fill-rule="evenodd">
        <g id="Instagram" fill="#DDDDDD">
            <path d="M21.9288,16.9291622 C21.8741415,18.1179432 21.6756446,18.7644732 21.5087921,19.1938152 C21.0981337,20.2574613 20.2573987,21.0988853 19.1937143,21.5088098 C18.7643569,21.6763754 18.1185228,21.8748652 16.9289798,21.9288026 C15.6430652,21.9877742 15.2568593,22 11.9996404,22 C8.74242152,22 8.35693481,21.9877742 7.07030098,21.9288026 C5.88147722,21.8748652 5.23564314,21.6763754 4.80556654,21.5088098 C4.2762415,21.3139159 3.79654069,21.0017979 3.40314287,20.5969076 C2.99823798,20.2035239 2.68610881,19.7238403 2.49048869,19.1938152 C2.32363623,18.7644732 2.12513934,18.1179432 2.07119997,16.9291622 C2.01222626,15.6432938 2,15.2571018 2,12 C2,8.74289824 2.01222626,8.35742539 2.07119997,7.07155699 C2.12513934,5.88277598 2.32363623,5.23624595 2.49048869,4.80690399 C2.68682801,4.27687882 2.99823798,3.79719525 3.40314287,3.40381158 C3.79725988,2.99892125 4.2762415,2.68680331 4.80556654,2.49190939 C5.23564314,2.32434376 5.88147722,2.12585401 7.07102017,2.07191658 C8.35693481,2.01294498 8.74314071,2 11.9996404,2 L11.9996404,2.00071917 C15.2568593,2.00071917 15.642346,2.01294498 16.9289798,2.07191658 C18.1185228,2.12585401 18.7636377,2.32434376 19.1937143,2.49190939 C19.7237585,2.68680331 20.2027401,2.99892125 20.5961379,3.40381158 C21.0010428,3.79719525 21.313172,4.27687882 21.5087921,4.80690399 C21.6756446,5.23624595 21.8741415,5.88277598 21.9288,7.07155699 C21.9877737,8.35742539 22,8.74289824 22,12 C22,15.2571018 21.9877737,15.6425746 21.9288,16.9291622 M23.9278323,7.05212264 C23.8691076,5.77570755 23.6667551,4.90259434 23.3695941,4.13915094 C23.0681878,3.33891509 22.5962678,2.61367925 21.9856726,2.01367925 C21.3863978,1.40377358 20.6611833,0.931132075 19.8602636,0.629716981 C19.0968427,0.333254717 18.2244627,0.130188679 16.9473777,0.0721698113 C15.6674626,0.0134433962 15.2585124,0 11.9996462,0 C8.74078005,0 8.33182984,0.0134433962 7.05262227,0.0721698113 C5.77482975,0.130188679 4.90315734,0.333254717 4.13902892,0.629716981 C3.33881666,0.931132075 2.61360219,1.40377358 2.01432741,2.01367925 C1.4037322,2.61367925 0.931104625,3.33820755 0.629698417,4.13915094 C0.333244893,4.90259434 0.130184841,5.77570755 0.0721676837,7.05212264 C0.0134429999,8.33207547 0,8.74103774 0,12 C0,15.2589623 0.0134429999,15.6679245 0.0721676837,16.9478774 C0.130184841,18.225 0.333244893,19.0974057 0.630405943,19.8608491 C0.931104625,20.6617925 1.4037322,21.3870283 2.01432741,21.9863208 C2.61360219,22.596934 3.33881666,23.0688679 4.13973645,23.370283 C4.90315734,23.6674528 5.77482975,23.8698113 7.05262227,23.9285377 C8.33253737,23.9865566 8.74078005,24 11.9996462,24 C15.25922,24 15.6674626,23.9865566 16.9473777,23.9285377 C18.2251702,23.8698113 19.0968427,23.6674528 19.8602636,23.370283 C21.472716,22.746934 22.7462634,21.4726415 23.3695941,19.8608491 C23.6667551,19.0974057 23.8691076,18.225 23.9278323,16.9478774 C23.9858495,15.6679245 24,15.2589623 24,12 C24,8.74103774 23.9858495,8.33207547 23.9278323,7.05212264" id="Fill-1"></path>
            <path d="M12,15.8947127 C9.84843266,15.8947127 8.10471926,14.1510994 8.1054082,12.0003445 C8.1054082,9.84890063 9.84843266,8.10528733 12,8.10528733 C14.1508784,8.10528733 15.8945918,9.84890063 15.8945918,12.0003445 C15.8945918,14.1510994 14.1508784,15.8947127 12,15.8947127 M12,6 C8.6861867,6 6,8.68603249 6,12.0003445 C6,15.3132786 8.6861867,18 12,18 C15.3138133,18 18,15.3132786 18,12.0003445 C18,8.68603249 15.3138133,6 12,6" id="Fill-4"></path>
            <path d="M18.5,4 C17.6714988,4 17,4.67149877 17,5.5 C17,6.32850123 17.6714988,7 18.5,7 C19.3285012,7 20,6.32850123 20,5.5 C20,4.67149877 19.3285012,4 18.5,4" id="Fill-6"></path>
        </g>
    </g>
</svg>