<?xml version="1.0" encoding="UTF-8"?>
<svg width="16px" height="8px" viewBox="0 0 16 8" version="1.1" xmlns="http://www.w3.org/2000/svg" xmlns:xlink="http://www.w3.org/1999/xlink">
    <!-- Generator: Sketch 42 (36781) - http://www.bohemiancoding.com/sketch -->
    <title>link-icon-hover</title>
    <desc>Created with Sketch.</desc>
    <defs></defs>
    <g id="Icons" stroke="none" stroke-width="1" fill="none" fill-rule="evenodd">
        <g id="link-icon-hover" fill-rule="nonzero" fill="#2D90E8">
            <path d="M8.90380979,5 C8.57219186,6.6916351 7.41332733,8 5.89976919,8 L3.10023081,8 C1.296725,8 0,6.14630148 0,4 C0,1.8531237 1.2989274,0 3.10023081,0 L5.89976919,0 L5.89976919,2 L3.10023081,2 C2.58658751,2 2,2.8368591 2,4 C2,5.16299304 2.58551476,6 3.10023081,6 L5.89976919,6 C6.24898036,6 6.63190815,5.61318317 6.84129267,5 L6,5 C5.44771525,5 5,4.55228475 5,4 C5,3.44771525 5.44771525,3 6,3 L7.09619021,3 C7.42780814,1.3083649 8.58667267,0 10.1002308,0 L12.8997692,0 C14.703275,0 16,1.85369852 16,4 C16,6.1468763 14.7010726,8 12.8997692,8 L10.1002308,8 L10.1002308,6 L12.8997692,6 C13.4134125,6 14,5.1631409 14,4 C14,2.83700696 13.4144852,2 12.8997692,2 L10.1002308,2 C9.75101964,2 9.36809185,2.38681683 9.15870733,3 L10,3 C10.5522847,3 11,3.44771525 11,4 C11,4.55228475 10.5522847,5 10,5 L8.90380979,5 L8.90380979,5 Z" id="Combined-Shape"></path>
        </g>
    </g>
</svg>