<?xml version="1.0" encoding="UTF-8"?>
<svg width="24px" height="24px" viewBox="0 0 24 24" version="1.1" xmlns="http://www.w3.org/2000/svg" xmlns:xlink="http://www.w3.org/1999/xlink">
    <!-- Generator: Sketch 42 (36781) - http://www.bohemiancoding.com/sketch -->
    <title>linkedin-white</title>
    <desc>Created with Sketch.</desc>
    <defs></defs>
    <g id="Icons" stroke="none" stroke-width="1" fill="none" fill-rule="evenodd">
        <g id="linkedin-white" fill="#FFFFFF">
            <path d="M24,23 L18.6953185,23 L18.6953185,15.265625 C18.6953185,13.2408913 17.866462,11.8597253 16.0414428,11.8597253 C14.6454336,11.8597253 13.8702993,12.7923206 13.5088258,13.6910034 C13.3729854,14.0131726 13.3944743,14.462514 13.3944743,14.9126261 L13.3944743,23 L8.13891021,23 C8.13891021,23 8.20721412,9.30009809 8.13891021,8.05381166 L13.3944743,8.05381166 L13.3944743,10.3999439 C13.704528,9.37408913 15.3829624,7.91045404 18.0644666,7.91045404 C21.3883346,7.91045404 24,10.0608184 24,14.6891115 L24,23 Z M2.82425173,6.18476738 L2.7904835,6.18476738 C1.09746738,6.18476738 0,5.04253083 0,3.59508128 C0,2.11834361 1.13046815,1 2.85725249,1 C4.58250192,1 5.64466616,2.11603139 5.67843438,3.59045684 C5.67843438,5.03867713 4.58250192,6.18476738 2.82425173,6.18476738 L2.82425173,6.18476738 Z M0.60475825,23 L5.28319263,23 L5.28319263,8.05381166 L0.60475825,8.05381166 L0.60475825,23 Z" id="Page-1"></path>
        </g>
    </g>
</svg>