<?xml version="1.0" encoding="UTF-8"?>
<svg width="24px" height="24px" viewBox="0 0 24 24" version="1.1" xmlns="http://www.w3.org/2000/svg" xmlns:xlink="http://www.w3.org/1999/xlink">
    <!-- Generator: Sketch 42 (36781) - http://www.bohemiancoding.com/sketch -->
    <title>Twitter</title>
    <desc>Created with Sketch.</desc>
    <defs></defs>
    <g id="Icons" stroke="none" stroke-width="1" fill="none" fill-rule="evenodd">
        <g id="Twitter" fill="#DDDDDD">
            <path d="M21,6 C22.2,5.4 23,4.5 23,3 C22.4,3.9 21.4,4.3 20,5 C19.4,3.6 18.1,3 17,3 C14,3 11.8,5.2 12,8 C11.8,8.2 11.8,8.5 12,9 C7.8,8.7 4.2,6.8 2,4 C1.2,4.5 1,5.3 1,6 C1,7.9 1.9,9.3 3,10 C2.4,10.2 1.6,10 1,10 L1,10 C1,12 2.7,14 5,14 C4.5,14.5 4.1,14.6 4,15 C3.3,14.6 3,14.6 3,15 C3.3,16.4 5.1,17.8 7,18 C5.6,19.1 3.5,19.9 1,20 C0.8,19.9 0.4,19.9 0,20 C2.2,21.2 4.8,22 8,22 C16.6,22 21.5,14.6 22,8 L22,8 C22.5,7 23.3,6.1 24,5 C23.1,5.6 22.2,5.8 21,6 Z" id="Page-1"></path>
        </g>
    </g>
</svg>